PathFileType	3	(X/Y/Z)	F:\ViconData\AntennenMessung\Messung1\Session1\ID07.trc
DataRate	CameraRate	NumFrames	NumMarkers	Units	OrigDataRate	OrigDataStartFrame	OrigNumFrames
120.0	120.0	5	70	mm	120.0	215	856	
Frame#	Time	Ashort			Along			Atop			A4			Bshort			Blong			Btop			B4			Cshort			Clong			Ctop			C4			Dshort			Dlong			Dtop			D4			Eshort			Elong			Etop			E4			Fshort			Flong			Ftop			F4			Gshort			Glong			Gtop			G4			Hshort			Hlong			Htop			H4			I1			I2			I3			I4			I5			WandAshort			WandAlong			WandAtop			WandA4			WandA15			WandBshort			WandB4			WandB5			WandBtop			WandBlong			WandCshort			WandClong			WandCtop			WandC4			WandC5			Acenter			Aantenna			Bcenter			Bantenna			Ccenter			Cantenna			Dcenter			Dantenna			Ecenter			Eantenna			Fcenter			Fantenna			Gcenter			Gantenna			Hcenter			Hantenna			Icenter			Iantenna			
		X1	Y1	Z1	X2	Y2	Z2	X3	Y3	Z3	X4	Y4	Z4	X5	Y5	Z5	X6	Y6	Z6	X7	Y7	Z7	X8	Y8	Z8	X9	Y9	Z9	X10	Y10	Z10	X11	Y11	Z11	X12	Y12	Z12	X13	Y13	Z13	X14	Y14	Z14	X15	Y15	Z15	X16	Y16	Z16	X17	Y17	Z17	X18	Y18	Z18	X19	Y19	Z19	X20	Y20	Z20	X21	Y21	Z21	X22	Y22	Z22	X23	Y23	Z23	X24	Y24	Z24	X25	Y25	Z25	X26	Y26	Z26	X27	Y27	Z27	X28	Y28	Z28	X29	Y29	Z29	X30	Y30	Z30	X31	Y31	Z31	X32	Y32	Z32	X33	Y33	Z33	X34	Y34	Z34	X35	Y35	Z35	X36	Y36	Z36	X37	Y37	Z37	X38	Y38	Z38	X39	Y39	Z39	X40	Y40	Z40	X41	Y41	Z41	X42	Y42	Z42	X43	Y43	Z43	X44	Y44	Z44	X45	Y45	Z45	X46	Y46	Z46	X47	Y47	Z47	X48	Y48	Z48	X49	Y49	Z49	X50	Y50	Z50	X51	Y51	Z51	X52	Y52	Z52	X53	Y53	Z53	X54	Y54	Z54	X55	Y55	Z55	X56	Y56	Z56	X57	Y57	Z57	X58	Y58	Z58	X59	Y59	Z59	X60	Y60	Z60	X61	Y61	Z61	X62	Y62	Z62	X63	Y63	Z63	X64	Y64	Z64	X65	Y65	Z65	X66	Y66	Z66	X67	Y67	Z67	X68	Y68	Z68	X69	Y69	Z69	X70	Y70	Z70	
215	1.7833333	-1038.2456	214.61006	-1644.1869	-1109.3278	203.82249	-1599.4827	-1063.5557	172.96997	-1625.8574	-1054.1544	262.19818	-1634.881	-1352.6908	235.23962	1003.8151	-1281.4042	227.3136	1052.2067	-1322.9178	194.09523	1020.8047	-1284.5071	287.92963	1052.7173	813.81549	187.71649	1209.4137	892.39093	178.27106	1179.0073	844.58136	145.31621	1198.3843	861.12018	292.90643	1167.036	1115.9076	209.97675	-1401.8306	1056.3351	194.05791	-1460.1571	1095.1292	162.32375	-1423.78	1069.7422	238.86148	-1425.9974	-1204.5541	1686.0006	-1563.3003	-1129.1432	1688.3521	-1606.3114	-1173.1431	1724.481	-1581.9999	-1133.5278	1581.1315	-1603.6079	-1239.5825	1698.9817	1119.3578	-1309.277	1698.5726	1071.8363	-1270.4944	1736.2709	1096.8728	-1245.6947	1592.8627	1110.6583	988.85077	1664.2258	1162.2549	957.27588	1700.5208	1183.7894	921.88098	1662.2654	1214.7551	939.8559	1659.3368	1159.886	999.23706	1668.4604	-1579.3823	1058.86	1669.9998	-1518.7224	1025.0875	1708.0482	-1551.1533	1059.3511	1672.2009	-1585.556	354.73154	169.05502	19.931562	349.22412	177.18907	103.51982	352.3493	132.33008	61.439144	385.0994	173.29308	57.659325	304.88889	171.89319	53.733547																																														-1068.6687	209.99298	-1625.0535	-1074.0028	248.61736	-1624.2145	-1321.5465	231.77684	1024.9565	-1320.137	270.51691	1029.2252	848.28619	183.5728	1196.0743	852.03882	222.32129	1193.7347	1088.8129	202.73654	-1428.3585	1082.8278	241.0296	-1432.6969	-1171.924	1687.0181	-1581.911	-1170.6558	1648.0387	-1581.8185	-1270.9993	1698.7972	1097.936	-1271.5247	1659.8164	1099.0421	952.77545	1705.6937	1186.8585	972.80499	1733.849	1168.7728	1026.5449	1669.1654	-1551.5992	1028.0059	1630.1954	-1552.0463	352.25601	172.71118	57.503479	352.16629	211.52716	53.72036
216	1.7916667	-1038.2495	214.57083	-1644.1418	-1109.3535	203.79813	-1599.5085	-1063.5726	172.93704	-1625.8728	-1054.16	262.20886	-1634.903	-1352.7888	235.2173	1003.832	-1281.395	227.22493	1052.2621	-1322.8522	194.13577	1020.6981	-1284.4541	287.93323	1052.7236	813.96271	187.69962	1209.434	892.96216	179.01147	1178.4227	844.59473	145.30844	1198.3368	861.24762	292.27557	1167.7777	1115.9218	209.98126	-1401.8329	1056.3115	194.05035	-1460.1382	1095.1785	162.35231	-1423.8002	1069.7928	238.92712	-1425.984	-1204.5433	1686.0134	-1563.3281	-1129.1522	1688.2778	-1606.0829	-1173.1515	1724.5	-1581.9995	-1133.5275	1581.1367	-1603.6361	-1239.5698	1698.9619	1119.3568	-1309.4124	1698.795	1071.9186	-1270.4565	1736.218	1096.8602	-1245.6851	1592.8191	1110.6641	988.81403	1664.2046	1162.2501	957.31421	1700.5139	1183.8027	921.8136	1662.4496	1214.9121	939.87158	1659.4122	1159.8506	999.23468	1668.4614	-1579.3995	1058.8711	1670.0138	-1518.7236	1025.0939	1708.0428	-1551.1434	1059.3473	1672.204	-1585.5651	354.73007	169.01431	19.939293	349.22925	177.21243	103.50008	352.39569	132.39168	61.43272	385.09064	173.29398	57.664703	304.92142	171.91963	53.699959																																														-1068.6653	209.96265	-1625.0491	-1073.978	248.58951	-1624.1899	-1321.5692	231.72232	1025.0098	-1320.2474	270.44598	1029.4519	847.96246	183.9604	1196.0873	851.34204	222.74806	1193.8298	1088.8235	202.73923	-1428.3379	1082.7982	241.03006	-1432.6401	-1171.9263	1686.993	-1581.8253	-1170.653	1648.0143	-1581.6445	-1271.101	1698.8866	1097.9402	-1271.7738	1659.9087	1099.0679	952.69836	1705.8345	1186.9608	972.72516	1733.9668	1168.8362	1026.564	1669.1726	-1551.5938	1028.038	1630.2031	-1552.0453	352.25943	172.69638	57.469471	352.12823	211.50897	53.652954
217	1.8	-1038.2501	214.59541	-1644.1539	-1109.3351	203.89012	-1599.521	-1063.5724	172.91199	-1625.8854	-1054.1538	262.20721	-1634.8948	-1352.7078	235.29309	1003.8608	-1281.3707	227.35303	1052.1605	-1322.8997	194.11967	1020.7761	-1284.5212	287.81396	1052.708	813.86304	187.73117	1209.4832	892.20496	178.27003	1179.0702	844.54565	145.36284	1198.3573	861.15271	292.28378	1167.2546	1115.8997	209.99515	-1401.8381	1056.3193	194.08702	-1460.182	1095.1598	162.40117	-1423.7921	1069.7899	238.92314	-1425.9886	-1204.5366	1686.0088	-1563.3217	-1129.1344	1688.2799	-1606.0704	-1173.141	1724.4872	-1582.0032	-1133.5327	1581.1561	-1603.6368	-1239.6122	1699.0371	1119.3809	-1309.4845	1698.9293	1071.9619	-1270.4867	1736.2678	1096.8746	-1245.7013	1592.8688	1110.6637	988.87756	1664.256	1162.2695	957.28516	1700.554	1183.7407	922.39447	1662.2322	1214.9241	939.82666	1659.3644	1159.8879	999.22711	1668.4784	-1579.3976	1058.8372	1669.988	-1518.7206	1025.085	1708.0542	-1551.1575	1059.3477	1672.2195	-1585.5773	354.74042	169.04222	19.922705	349.23856	177.1761	103.494	352.39526	132.47313	61.324406	385.12311	173.42241	57.718349	304.92462	171.91661	53.721413																																														-1068.6472	210.01761	-1625.0681	-1073.9309	248.64868	-1624.2172	-1321.5387	231.82387	1024.9641	-1320.1405	270.56055	1029.267	848.29083	183.57341	1196.1179	852.08875	222.32155	1193.847	1088.8354	202.76892	-1428.3407	1082.8362	241.06241	-1432.6554	-1171.9081	1686.9915	-1581.8202	-1170.6263	1648.0129	-1581.6301	-1271.1689	1698.9883	1097.9646	-1271.8824	1660.0115	1099.1044	952.95209	1705.5322	1186.6855	972.79779	1733.6536	1168.3461	1026.5282	1669.1697	-1551.6078	1027.9746	1630.1991	-1552.0592	352.27295	172.69003	57.402084	352.15491	211.50568	53.616432
218	1.8083333	-1038.2379	214.57477	-1644.1587	-1109.3453	203.82538	-1599.5233	-1063.4597	172.97897	-1625.9518	-1054.1267	262.14685	-1634.9551	-1352.6996	235.23988	1003.865	-1281.3604	227.32779	1052.3101	-1322.9229	194.08783	1020.7181	-1284.4358	287.88846	1052.7484	813.95044	187.71873	1209.4883	892.25098	178.2076	1179.1577	844.54242	145.30338	1198.3397	861.23236	292.3429	1167.8359	1115.9116	210.00406	-1401.8435	1056.3291	194.09966	-1460.1449	1095.1895	162.4037	-1423.797	1069.8015	238.95198	-1425.976	-1204.5398	1686.0033	-1563.3176	-1129.1367	1688.3551	-1606.3116	-1173.1404	1724.4706	-1581.9868	-1133.5287	1581.104	-1603.5874	-1239.3896	1698.7161	1119.2712	-1309.4349	1698.8473	1071.9325	-1270.48	1736.2493	1096.8669	-1245.7291	1592.9048	1110.6799	988.83618	1664.2288	1162.2833	957.26898	1700.5385	1183.7568	922.06421	1662.295	1214.8607	939.84827	1659.3932	1159.8828	999.22668	1668.4639	-1579.3851	1058.8439	1669.9962	-1518.7137	1025.0941	1708.0565	-1551.1411	1059.3569	1672.236	-1585.5779	354.73154	168.99414	19.921049	349.21771	177.2137	103.5118	352.3793	132.49623	61.326927	385.10327	173.28474	57.649269	304.90091	171.89694	53.74139																																														-1068.543	209.9935	-1625.1355	-1073.8479	248.62164	-1624.2839	-1321.626	231.79355	1024.9664	-1320.2938	270.52573	1029.3306	848.34479	183.54083	1196.1652	852.19781	222.28745	1193.9618	1088.8452	202.77924	-1428.3278	1082.8284	241.07196	-1432.6248	-1171.9296	1687.0203	-1581.9116	-1170.6692	1648.0408	-1581.8334	-1271.1742	1698.7755	1097.7903	-1271.8964	1659.7939	1098.7507	952.82684	1705.6477	1186.7784	972.78271	1733.7708	1168.5613	1026.5446	1669.166	-1551.584	1027.9979	1630.1956	-1552.028	352.26141	172.67636	57.36821	352.14755	211.48827	53.544292
219	1.8166667	-1038.2411	214.5403	-1644.1172	-1109.3196	203.83047	-1599.4956	-1063.5403	172.93076	-1625.9185	-1054.1626	262.2178	-1634.9153	-1352.7561	235.19621	1003.8655	-1281.3278	227.47295	1052.1866	-1322.9412	194.07066	1020.7751	-1284.4806	287.82111	1052.6826	813.94019	187.71712	1209.4784	892.40967	178.2701	1179.072	844.52924	145.33066	1198.3123	861.05054	292.43692	1167.1742	1115.9034	209.99458	-1401.8375	1056.3301	194.06732	-1460.1522	1095.188	162.42932	-1423.8005	1069.8052	238.92647	-1425.9707	-1204.5452	1686.0205	-1563.3191	-1129.1442	1688.2937	-1606.0839	-1173.1442	1724.4872	-1581.9908	-1133.5769	1581.1497	-1603.6448	-1239.3201	1698.7454	1119.2689	-1309.4272	1698.8191	1071.9263	-1270.4679	1736.2213	1096.8547	-1245.6775	1592.7705	1110.6442	988.83948	1664.2437	1162.2595	957.21509	1700.5497	1183.7827	922.41931	1662.1921	1214.9128	939.8363	1659.363	1159.8439	999.23175	1668.4845	-1579.4089	1058.8451	1669.9882	-1518.7128	1025.0994	1708.0653	-1551.1605	1059.3542	1672.2267	-1585.588	354.76587	169.18918	20.032148	349.23752	177.19984	103.505	352.41495	132.43887	61.443523	385.11227	173.55441	57.707375	304.92581	171.86975	53.739311																																														-1068.5863	209.96797	-1625.067	-1073.85	248.60095	-1624.1787	-1321.653	231.83316	1024.9065	-1320.3313	270.57956	1029.1458	848.30145	183.58031	1196.1636	852.12329	222.33151	1193.9867	1088.8392	202.75882	-1428.3298	1082.8115	241.04945	-1432.63	-1171.9191	1687.004	-1581.8232	-1170.6453	1648.0251	-1581.649	-1271.1351	1698.7788	1097.7844	-1271.8297	1659.797	1098.7524	952.91956	1705.4811	1186.7061	972.74518	1733.6196	1168.3712	1026.5363	1669.1731	-1551.6083	1027.9761	1630.2023	-1552.0569	352.28027	172.79083	57.562138	352.15073	211.61143	53.828056
